<?xml version="1.0" standalone="no"?>
<!DOCTYPE svg PUBLIC "-//W3C//DTD SVG 20010904//EN"
 "http://www.w3.org/TR/2001/REC-SVG-20010904/DTD/svg10.dtd">
<svg version="1.0" xmlns="http://www.w3.org/2000/svg"
 width="1000.000000pt" height="1000.000000pt" viewBox="0 0 1000.000000 1000.000000"
 preserveAspectRatio="xMidYMid meet">
<metadata>
Created by potrace 1.14, written by Peter Selinger 2001-2017
</metadata>
<g transform="translate(0.000000,1000.000000) scale(0.100000,-0.100000)"
fill="#000000" stroke="none">
<path d="M2300 6101 c0 -9 15 -63 86 -303 19 -65 50 -172 69 -238 19 -66 50
-173 69 -237 75 -257 130 -445 171 -588 24 -82 86 -298 139 -478 53 -180 96
-334 96 -342 0 -13 38 -15 259 -15 l260 0 35 113 c19 61 62 207 96 322 34 116
85 284 112 375 59 195 114 382 137 464 9 33 21 61 27 63 6 2 22 -35 37 -84 15
-48 67 -225 117 -393 50 -168 116 -388 146 -490 31 -102 68 -227 82 -277 l26
-93 257 0 257 0 11 33 c5 17 87 298 181 622 246 849 249 861 280 965 15 52 47
160 70 240 23 80 55 188 71 241 16 53 29 99 29 103 0 3 -133 6 -295 6 -162 0
-295 -3 -295 -7 0 -3 -30 -135 -66 -292 -36 -157 -86 -371 -109 -476 -24 -104
-69 -298 -99 -430 -31 -131 -56 -240 -56 -242 0 -2 -4 -3 -9 -3 -12 0 -47 122
-182 650 -22 85 -52 198 -65 250 -94 355 -144 544 -144 547 0 2 -109 2 -242 1
l-242 -3 -17 -65 c-9 -36 -31 -119 -49 -185 -17 -66 -95 -361 -172 -655 -77
-294 -142 -537 -145 -540 -12 -13 -21 22 -204 820 -27 118 -70 307 -96 420
l-48 205 -292 3 c-170 1 -293 -1 -293 -7z"/>
<path d="M5540 6104 c0 -4 28 -57 62 -118 34 -61 109 -199 168 -306 59 -107
147 -267 195 -355 123 -224 134 -245 160 -290 12 -22 37 -67 55 -100 18 -33
61 -112 96 -177 l64 -116 0 -371 0 -371 265 0 265 0 0 367 0 366 77 141 c42
78 85 157 96 176 11 19 43 78 72 130 113 205 229 417 309 563 169 308 199 363
228 415 l29 52 -298 0 -298 0 -232 -458 c-127 -251 -238 -458 -245 -460 -8 -1
-99 167 -245 455 l-232 458 -296 3 c-162 1 -295 -1 -295 -4z"/>
</g>
</svg>
